<svg width="29" height="62" viewBox="0 0 29 62" fill="none" xmlns="http://www.w3.org/2000/svg">
<path fill-rule="evenodd" clip-rule="evenodd" d="M28.982 0L26.2985 1.49833C23.615 2.945 18.2479 5.89 17.7112 8.835C17.1745 11.8317 21.4681 14.7767 22.0048 17.7217C22.5416 20.6667 19.3213 23.6117 15.5644 26.5567C11.8075 29.5017 7.51385 32.4983 5.90374 35.4433C4.29363 38.3883 5.36704 41.3333 8.05055 44.2783C10.7341 47.2233 15.0277 50.1683 18.7846 53.165C22.5416 56.11 25.7618 59.055 27.3719 60.5017L28.982 62L1.00551e-06 62L8.89024e-07 60.5017C7.76553e-07 59.055 5.47593e-07 56.11 3.18633e-07 53.165C8.56557e-08 50.1683 -1.43304e-07 47.2233 -3.72264e-07 44.2783C-6.01224e-07 41.3333 -8.30184e-07 38.3883 -1.05914e-06 35.4433C-1.2881e-06 32.4983 -1.52108e-06 29.5017 -1.75004e-06 26.5567C-1.979e-06 23.6117 -2.20796e-06 20.6667 -2.43692e-06 17.7217C-2.66588e-06 14.7767 -2.89484e-06 11.8317 -3.12782e-06 8.835C-3.35678e-06 5.89 -3.58574e-06 2.945 -3.69821e-06 1.49833L-3.8147e-06 7.12268e-07L28.982 0Z" fill="#123057"/>
</svg>
