<svg width="21" height="44" viewBox="0 0 21 44" fill="none" xmlns="http://www.w3.org/2000/svg">
<path fill-rule="evenodd" clip-rule="evenodd" d="M0 0L1.90443 1.06333C3.80886 2.09 7.61773 4.18 7.99862 6.27C8.3795 8.39667 5.33241 10.4867 4.95152 12.5767C4.57064 14.6667 6.85596 16.7567 9.52216 18.8467C12.1884 20.9367 15.2355 23.0633 16.3781 25.1533C17.5208 27.2433 16.759 29.3333 14.8546 31.4233C12.9501 33.5133 9.90305 35.6033 7.23684 37.73C4.57064 39.82 2.28532 41.91 1.14266 42.9367L-3.42079e-06 44L20.5679 44L20.5679 42.9367C20.5679 41.91 20.5679 39.82 20.5679 37.73C20.5679 35.6033 20.5679 33.5133 20.5679 31.4233C20.5679 29.3333 20.5679 27.2433 20.5679 25.1533C20.5679 23.0633 20.5679 20.9367 20.5679 18.8467C20.5679 16.7567 20.5679 14.6667 20.5679 12.5767C20.5679 10.4867 20.5679 8.39667 20.5679 6.27C20.5679 4.18 20.5679 2.09 20.5679 1.06333L20.5679 5.0548e-07L0 0Z" fill="#123057"/>
</svg>
