<svg width="184" height="28" viewBox="0 0 184 28" fill="none" xmlns="http://www.w3.org/2000/svg">
<path d="M14 2.37988C7.58337 2.37988 2.33337 7.61822 2.33337 14.0699C2.33337 19.9032 6.60337 24.7449 12.18 25.6199V17.4532H9.21671V14.0699H12.18V11.4915C12.18 8.56322 13.9184 6.95322 16.59 6.95322C17.8617 6.95322 19.1917 7.17488 19.1917 7.17488V10.0565H17.7217C16.275 10.0565 15.82 10.9549 15.82 11.8766V14.0699H19.0634L18.5384 17.4532H15.82V25.6199C18.5692 25.1857 21.0726 23.783 22.8783 21.6649C24.6839 19.5469 25.673 16.8531 25.6667 14.0699C25.6667 7.61822 20.4167 2.37988 14 2.37988Z" fill="#FAF7F0"/>
<path fill-rule="evenodd" clip-rule="evenodd" d="M66 21C69.866 21 73 17.866 73 14C73 10.134 69.866 7 66 7C62.134 7 59 10.134 59 14C59 17.866 62.134 21 66 21ZM66 18.6667C68.5773 18.6667 70.6667 16.5773 70.6667 14C70.6667 11.4227 68.5773 9.33333 66 9.33333C63.4227 9.33333 61.3333 11.4227 61.3333 14C61.3333 16.5773 63.4227 18.6667 66 18.6667Z" fill="#FAF7F0"/>
<path d="M73 5.83325C72.3557 5.83325 71.8334 6.35559 71.8334 6.99992C71.8334 7.64425 72.3557 8.16659 73 8.16659C73.6444 8.16659 74.1667 7.64425 74.1667 6.99992C74.1667 6.35559 73.6444 5.83325 73 5.83325Z" fill="#FAF7F0"/>
<path fill-rule="evenodd" clip-rule="evenodd" d="M53.9296 4.98882C53.1666 6.4862 53.1666 8.44639 53.1666 12.3667V15.6334C53.1666 19.5538 53.1666 21.514 53.9296 23.0113C54.6007 24.3285 55.6716 25.3993 56.9887 26.0704C58.4861 26.8334 60.4463 26.8334 64.3666 26.8334H67.6333C71.5536 26.8334 73.5139 26.8334 75.0112 26.0704C76.3283 25.3993 77.3992 24.3285 78.0703 23.0113C78.8333 21.514 78.8333 19.5538 78.8333 15.6334V12.3667C78.8333 8.44639 78.8333 6.4862 78.0703 4.98882C77.3992 3.67167 76.3283 2.60081 75.0112 1.9297C73.5139 1.16675 71.5536 1.16675 67.6333 1.16675H64.3666C60.4463 1.16675 58.4861 1.16675 56.9887 1.9297C55.6716 2.60081 54.6007 3.67167 53.9296 4.98882ZM67.6333 3.50008H64.3666C62.3679 3.50008 61.0093 3.5019 59.9591 3.5877C58.9361 3.67128 58.4129 3.82277 58.048 4.00871C57.1699 4.45613 56.456 5.17004 56.0086 6.04813C55.8226 6.41306 55.6712 6.93619 55.5876 7.95917C55.5018 9.00937 55.5 10.3681 55.5 12.3667V15.6334C55.5 17.6321 55.5018 18.9907 55.5876 20.041C55.6712 21.064 55.8226 21.5871 56.0086 21.9521C56.456 22.8301 57.1699 23.544 58.048 23.9914C58.4129 24.1774 58.9361 24.3289 59.9591 24.4125C61.0093 24.4982 62.3679 24.5001 64.3666 24.5001H67.6333C69.632 24.5001 70.9906 24.4982 72.0408 24.4125C73.0639 24.3289 73.587 24.1774 73.952 23.9914C74.83 23.544 75.5439 22.8301 75.9913 21.9521C76.1773 21.5871 76.3288 21.064 76.4123 20.041C76.4981 18.9907 76.5 17.6321 76.5 15.6334V12.3667C76.5 10.3681 76.4981 9.00937 76.4123 7.95917C76.3288 6.93619 76.1773 6.41306 75.9913 6.04813C75.5439 5.17004 74.83 4.45613 73.952 4.00871C73.587 3.82277 73.0639 3.67128 72.0408 3.5877C70.9906 3.5019 69.632 3.50008 67.6333 3.50008Z" fill="#FAF7F0"/>
<g clip-path="url(#clip0_109_193)">
<path fill-rule="evenodd" clip-rule="evenodd" d="M115.184 17.6208V9.76421C117.973 11.0766 120.133 12.3444 122.688 13.7113C120.581 14.8799 117.973 16.1911 115.184 17.6208ZM130.727 5.85679C130.246 5.22293 129.426 4.72952 128.553 4.56617C125.987 4.0789 109.979 4.07751 107.415 4.56617C106.715 4.6974 106.091 5.01462 105.556 5.50748C103.299 7.60174 104.007 18.8326 104.55 20.6518C104.779 21.4393 105.075 22.0072 105.447 22.3799C105.927 22.8728 106.584 23.2121 107.338 23.3643C109.451 23.8013 120.335 24.0457 128.509 23.4299C129.262 23.2987 129.928 22.9484 130.454 22.4346C132.54 20.3487 132.398 8.48718 130.727 5.85679Z" fill="#FAF7F0"/>
</g>
<path d="M165.696 11.991C164.924 11.991 164.183 12.2978 163.637 12.8439C163.091 13.39 162.784 14.1307 162.784 14.903C162.784 15.6753 163.091 16.416 163.637 16.9621C164.183 17.5082 164.924 17.815 165.696 17.815C166.468 17.815 167.209 17.5082 167.755 16.9621C168.301 16.416 168.608 15.6753 168.608 14.903C168.608 14.1307 168.301 13.39 167.755 12.8439C167.209 12.2978 166.468 11.991 165.696 11.991ZM167.223 14.9041C167.223 15.2062 167.134 15.5014 166.966 15.7526C166.798 16.0037 166.56 16.1995 166.281 16.3151C166.002 16.4306 165.694 16.4609 165.398 16.402C165.102 16.343 164.83 16.1976 164.616 15.984C164.403 15.7704 164.257 15.4983 164.198 15.2021C164.139 14.9058 164.17 14.5988 164.285 14.3197C164.401 14.0407 164.597 13.8021 164.848 13.6343C165.099 13.4665 165.394 13.377 165.696 13.377C166.54 13.377 167.223 14.0606 167.223 14.9041ZM174.304 11.991C173.728 11.991 173.165 12.1618 172.686 12.4817C172.207 12.8017 171.834 13.2565 171.614 13.7886C171.393 14.3207 171.335 14.9062 171.448 15.4711C171.56 16.0359 171.838 16.5548 172.245 16.9621C172.652 17.3693 173.171 17.6467 173.736 17.759C174.301 17.8714 174.886 17.8137 175.418 17.5933C175.95 17.3729 176.405 16.9997 176.725 16.5208C177.045 16.0419 177.216 15.4789 177.216 14.903C177.216 14.1308 176.909 13.3903 176.363 12.8442C175.817 12.2982 175.076 11.9913 174.304 11.991ZM175.83 14.9041C175.83 15.2062 175.74 15.5014 175.572 15.7526C175.405 16.0037 175.166 16.1995 174.887 16.3151C174.608 16.4306 174.301 16.4609 174.005 16.402C173.709 16.343 173.436 16.1976 173.223 15.984C173.009 15.7704 172.864 15.4983 172.805 15.2021C172.746 14.9058 172.776 14.5988 172.892 14.3197C173.007 14.0407 173.203 13.8021 173.454 13.6343C173.705 13.4665 174.001 13.377 174.303 13.377C175.147 13.377 175.83 14.0606 175.83 14.9041Z" fill="#FAF7F0"/>
<path d="M170 2.33325C163.557 2.33325 158.333 7.55642 158.333 13.9999C158.333 20.4434 163.557 25.6666 170 25.6666C176.444 25.6666 181.667 20.4434 181.667 13.9999C181.667 7.55642 176.444 2.33325 170 2.33325ZM174.304 19.2079C173.22 19.2091 172.175 18.7998 171.38 18.0623L170.001 19.5626L168.621 18.0611L168.614 18.0681C167.768 18.813 166.664 19.1965 165.539 19.1364C164.414 19.0763 163.357 18.5773 162.595 17.7466C161.834 16.9159 161.428 15.8197 161.466 14.6934C161.504 13.5671 161.982 12.5005 162.797 11.7226L161.388 10.1908H164.518C166.136 9.0898 168.048 8.50105 170.005 8.50105C171.962 8.50105 173.874 9.0898 175.492 10.1908H178.614L177.205 11.7226C177.847 12.3078 178.296 13.0732 178.495 13.9185C178.693 14.7637 178.632 15.6493 178.318 16.4588C178.004 17.2684 177.453 17.9642 176.736 18.4548C176.02 18.9454 175.172 19.2079 174.304 19.2079Z" fill="#FAF7F0"/>
<path d="M166.768 10.556C168.607 11.2595 170.001 12.9033 170.001 14.8202C170.001 12.9033 171.395 11.2595 173.233 10.556C172.209 10.1292 171.11 9.90942 170.001 9.90942C168.891 9.90942 167.792 10.1292 166.768 10.556Z" fill="#FAF7F0"/>
<defs>
<clipPath id="clip0_109_193">
<rect width="28" height="28" fill="white" transform="translate(104)"/>
</clipPath>
</defs>
</svg>
