<svg width="157" height="40" viewBox="0 0 157 40" fill="none" xmlns="http://www.w3.org/2000/svg">
<path d="M79.115 5.12133L76.0296 0L72.6524 2.84353C71.6607 3.70106 71.0949 4.28763 70.3503 5.44291C67.2114 10.1355 66.6455 15.8702 69.4063 20.4556L70.4278 22.117C71.4999 23.9661 72.036 25.6841 71.5267 28.0721C71.074 30.2963 69.7845 31.3652 68.1197 32.7884L65.4632 35.093L68.6558 40L71.6369 37.4006C73.2957 35.9774 74.3678 34.9591 75.4132 32.9463C77.748 28.3371 77.3757 23.6207 75.0379 19.3301L74.1564 17.6656C72.9473 15.3074 72.706 12.9224 73.9658 10.457C74.5823 9.14099 75.4132 8.49784 76.4883 7.55993L79.115 5.12133Z" fill="#123057"/>
<path d="M84.4514 20.3187C84.4514 24.9309 87.0216 28.3878 89.8657 28.3878V27.7982C88.2575 27.7982 86.4081 25.8658 86.4081 20.3187C86.4081 14.7448 88.2575 12.8094 89.8657 12.8094V12.2228C87.0216 12.2228 84.4514 15.6827 84.4514 20.3187ZM103.625 12.5444V13.1905C103.354 13.131 103.086 13.1071 102.794 13.1071C101.394 13.1071 101.233 13.4019 101.233 14.179V19.753C101.233 19.9405 101.26 20.0507 102.231 20.0507C102.71 20.0507 103.166 19.9703 103.625 19.8363V21.5276C103.276 20.8546 102.925 20.6403 102.118 20.6403C101.367 20.6403 101.233 20.7207 101.233 21.069V26.2172C101.233 26.8067 101.367 27.2087 101.987 27.3963C102.764 27.6106 103.136 27.5302 103.136 27.825C103.136 27.9888 103.005 28.093 102.681 28.093C102.442 28.093 102.037 28.0126 100.542 28.0126C98.9043 28.0126 98.7167 28.093 98.3682 28.093C97.9364 28.093 97.8054 28.0424 97.8054 27.8548C97.8054 27.56 98.0436 27.6613 98.9847 27.3963C99.4642 27.2891 99.6012 26.9675 99.6012 26.1338V14.5542C99.6012 13.6967 99.5476 13.3245 98.9847 13.2114C98.4159 13.0774 97.8828 13.1607 97.8828 12.8362C97.8828 12.6486 98.0734 12.5176 98.4159 12.5176C99.0115 12.5176 99.628 12.6218 100.241 12.6218C101.26 12.6218 102.231 12.5176 103.136 12.5176C103.303 12.5176 103.461 12.5176 103.625 12.5444ZM89.8657 28.3878C92.68 28.3878 95.2531 24.9309 95.2531 20.3187C95.2531 15.6827 92.68 12.2228 89.8657 12.2228V12.8094C91.45 12.8094 93.2965 14.7448 93.2965 20.3187C93.2965 25.8658 91.45 27.7982 89.8657 27.7982V28.3878ZM103.625 21.5276V19.8363C104.992 19.4046 106.01 18.2821 106.01 16.5104C106.01 14.5274 105.152 13.4555 103.625 13.1905V12.5444C106.248 12.7052 107.833 14.313 107.833 16.3526C107.833 17.7461 107.16 18.8954 105.745 19.6488C104.774 20.1311 104.295 19.9971 104.295 20.1311C104.295 20.2919 104.587 20.2115 104.911 20.8546C106.704 24.5825 107.38 27.1015 108.312 27.3963C109.092 27.691 109.444 27.4767 109.444 27.825C109.444 28.0424 109.304 28.093 109.066 28.093C108.771 28.093 108.533 28.0126 107.886 28.0126C107.457 28.0126 106.948 28.093 106.573 28.093C106.147 28.093 106.093 27.3963 103.756 21.8491C103.708 21.739 103.678 21.6318 103.625 21.5276ZM117.035 12.2228V12.8094C115.451 12.8094 113.598 14.7448 113.598 20.3187C113.598 25.8658 115.451 27.7982 117.035 27.7982V28.3878C114.215 28.3878 111.645 24.9309 111.645 20.3187C111.645 15.6827 114.215 12.2228 117.035 12.2228ZM139.127 14.2297C139.127 13.5627 139.234 13.3483 139.907 13.2114C140.574 13.0506 140.979 13.1071 140.979 12.7856C140.979 12.6486 140.872 12.5176 140.55 12.5176C140.256 12.5176 139.907 12.6218 138.65 12.6218C137.307 12.6218 136.798 12.5176 136.286 12.5176C135.91 12.5176 135.806 12.6486 135.806 12.8094C135.806 13.131 136.098 13.131 136.872 13.2114C137.334 13.2679 137.522 13.5627 137.522 14.852V26.2678C137.522 27.0181 137.307 27.3397 136.658 27.3963C135.988 27.4767 135.806 27.5838 135.806 27.825C135.806 27.9888 135.91 28.093 136.286 28.093C136.798 28.093 137.28 28.0126 139.291 28.0126C143.124 28.0126 143.421 28.093 144.386 28.093C144.759 28.093 144.759 27.9888 144.759 25.5472C144.759 23.859 144.759 23.7756 144.547 23.7756C144.33 23.7756 144.33 24.0198 144.091 24.7463C143.555 26.5923 142.48 27.5034 140.815 27.5034C139.583 27.5034 139.127 26.9377 139.127 25.6514V14.2297ZM128.158 14.2297C128.158 13.5627 128.266 13.3483 128.936 13.2114C129.606 13.0506 130.008 13.1071 130.008 12.7856C130.008 12.6486 129.901 12.5176 129.606 12.5176C129.311 12.5176 128.936 12.6218 127.679 12.6218C126.363 12.6218 125.83 12.5176 125.32 12.5176C124.945 12.5176 124.835 12.6486 124.835 12.8094C124.835 13.131 125.156 13.131 125.91 13.2114C126.392 13.2679 126.55 13.5627 126.55 14.852V26.2678C126.55 27.0181 126.363 27.3397 125.696 27.3963C125.019 27.4767 124.835 27.5838 124.835 27.825C124.835 27.9888 124.945 28.093 125.32 28.093C125.83 28.093 126.336 28.0126 128.319 28.0126C132.155 28.0126 132.45 28.093 133.448 28.093C133.793 28.093 133.793 27.9888 133.793 25.5472C133.793 23.859 133.793 23.7756 133.576 23.7756C133.364 23.7756 133.364 24.0198 133.15 24.7463C132.584 26.5923 131.515 27.5034 129.877 27.5034C128.614 27.5034 128.158 26.9377 128.158 25.6514V14.2297ZM117.035 28.3878V27.7982C118.64 27.7982 120.49 25.8658 120.49 20.3187C120.49 14.7448 118.64 12.8094 117.035 12.8094V12.2228C119.873 12.2228 122.446 15.6827 122.446 20.3187C122.446 24.9309 119.873 28.3878 117.035 28.3878ZM150.795 12.5176V16.1353H150.715C150.524 16.1353 150.524 16.2454 150.337 16.9392C149.348 20.938 149.16 21.6586 149.16 21.7926C149.16 21.9266 149.235 21.9563 150.637 21.9563H150.795V22.5459H149.375C148.996 22.5459 148.859 22.6233 148.571 23.8292C148.031 26.0564 147.924 26.4851 147.924 26.8067C147.924 27.1015 148.031 27.3963 148.648 27.4767C149.104 27.56 149.422 27.56 149.422 27.825C149.422 28.0424 149.291 28.093 149.023 28.093C148.597 28.093 148.088 28.0126 147.525 28.0126C146.423 28.0126 146.289 28.093 146.128 28.093C145.968 28.093 145.86 27.9888 145.86 27.825C145.86 27.3695 146.611 27.6613 146.825 26.9913C148.189 22.8913 149.348 17.6389 150.637 12.9732C150.685 12.7856 150.742 12.6218 150.795 12.5176ZM150.795 22.5459V21.9563C152.35 21.9563 152.4 21.9563 152.4 21.7658C152.4 21.4442 151.867 19.8363 151.06 16.6176C150.986 16.2961 150.902 16.1651 150.795 16.1353V12.5176C150.876 12.327 150.953 12.2228 151.117 12.2228C151.358 12.2228 151.409 12.3836 151.516 12.8094C152.728 17.1298 153.586 20.1817 155.355 26.5387C155.486 26.9913 155.694 27.3963 155.968 27.5034C156.29 27.6106 156.692 27.6613 156.692 27.9054C156.692 28.0424 156.561 28.093 156.186 28.093C155.647 28.093 155.25 28.0126 154.682 28.0126C154.065 28.0126 153.425 28.093 152.942 28.093C152.728 28.093 152.537 28.0424 152.537 27.825C152.537 27.6374 152.779 27.5034 153.181 27.5034C153.502 27.5034 153.8 27.3963 153.8 26.8871C153.8 26.6459 153.586 25.9224 153.023 23.7756C152.755 22.7305 152.645 22.5459 152.219 22.5459H150.795ZM42.5068 26.0796C42.5068 27.0205 42.346 27.2885 41.5657 27.3957C41.1428 27.4761 40.9225 27.5594 40.9225 27.7738C40.9225 28.0418 41.1905 28.0924 41.7057 28.0924C42.6676 28.0924 43.5015 28.015 44.7613 28.015C46.4499 28.015 48.3529 28.0924 49.8003 28.0924C50.4971 28.0924 50.5239 28.0418 50.5239 26.163C50.5239 23.7512 50.5239 23.6708 50.3393 23.6708C50.0951 23.6708 50.0415 23.781 49.8241 24.5015C49.2642 26.5917 48.6745 27.5028 46.3188 27.5028C44.7881 27.5028 44.1448 26.9669 44.1448 25.8146V20.4223C44.1448 20.1573 44.1716 20.1007 45.5088 20.0769C46.8251 20.0471 47.2242 20.5027 47.6054 21.8188C47.7602 22.4113 47.8436 22.5959 48.0044 22.5959C48.1921 22.5959 48.2755 22.5155 48.2755 22.2237C48.2755 21.527 48.1921 20.6397 48.1921 19.8357C48.1921 18.871 48.2755 18.4155 48.2755 17.8825C48.2755 17.5014 48.2755 17.3972 48.0819 17.3972C47.8704 17.3972 47.9002 17.5014 47.6054 18.4155C47.3373 19.2432 46.8251 19.4874 45.2169 19.4874C44.1716 19.4874 44.1448 19.4635 44.1448 19.0586V13.6663C44.1448 13.2673 44.3056 13.1065 45.6994 13.1065C47.8704 13.1065 48.7579 13.8301 49.4518 15.8369C49.6394 16.4027 49.6394 16.486 49.8568 16.486C50.1189 16.486 50.1189 16.3014 50.1189 13.5889C50.1189 12.5676 50.0683 12.514 49.559 12.514C49.0498 12.514 47.8436 12.6242 45.4313 12.6242C43.3645 12.6242 42.2626 12.514 41.7057 12.514C41.2173 12.514 41.0833 12.651 41.0833 12.8088C41.0833 13.1333 41.4585 13.0529 42.0512 13.2108C42.3728 13.2941 42.5068 13.4817 42.5068 14.0177V26.0796ZM38.4298 23.781C38.4298 18.871 31.9434 19.5112 31.9434 15.1729C31.9434 13.8837 33.0155 12.8088 34.2485 12.8088C35.3176 12.8088 36.2081 13.5651 36.8216 15.7089C36.9794 16.2151 36.899 16.617 37.2504 16.617C37.4946 16.617 37.4946 16.5634 37.4946 15.304C37.4946 13.2673 37.4946 13.1065 37.3547 12.9726C37.036 12.651 35.669 12.2222 34.6505 12.2222C32.3454 12.2222 30.4663 13.8837 30.4663 15.8965C30.4663 20.4521 36.9526 20.1811 36.9526 24.5015C36.9526 26.3505 35.8328 27.7976 34.1919 27.7976C32.7445 27.7976 31.6694 26.7257 31.0559 23.6976C31.0023 23.4564 31.0023 23.3224 30.7045 23.3224C30.4365 23.3224 30.359 23.376 30.359 25.0881C30.359 27.3153 30.4662 27.5594 30.8147 27.7738C31.321 28.0924 32.3186 28.3872 33.6856 28.3872C36.4702 28.3872 38.4298 26.5649 38.4298 23.781ZM26.3118 14.905C26.3118 13.5651 26.4696 13.3239 26.9789 13.2108C27.5149 13.0797 27.783 13.1333 27.783 12.8386C27.783 12.6242 27.7055 12.514 27.4673 12.514C27.1665 12.514 26.8985 12.6242 25.8293 12.6242C24.9924 12.6242 24.7274 12.514 24.4058 12.514C24.1109 12.514 23.9501 12.6808 23.9501 12.8386C23.9501 13.1601 24.1377 13.1601 24.647 13.2108C25.3439 13.2941 25.6119 13.6157 25.6119 15.1461V23.5874C25.6119 26.6721 23.9799 27.7976 22.2853 27.7976C21.0286 27.7976 19.3906 27.0205 19.3906 24.8231V14.634C19.3906 13.2108 19.8701 13.2108 20.4091 13.1333C20.9184 13.0529 21.1924 12.9994 21.1924 12.785C21.1924 12.5438 20.972 12.514 20.5967 12.514C20.1977 12.514 19.739 12.6242 18.6401 12.6242C17.7526 12.6242 17.6722 12.514 16.9783 12.514C16.7907 12.514 16.5227 12.5974 16.5227 12.7314C16.5227 13.1065 16.6507 12.9994 17.5918 13.2108C17.7794 13.2673 17.7526 13.5353 17.7526 14.1517V24.4479C17.7526 27.5296 20.0875 28.3872 22.0471 28.3872C24.51 28.3872 26.3118 27.0771 26.3118 22.8133V14.905ZM58.8657 12.2222V12.8088C57.2545 12.8088 55.4081 14.7442 55.4081 20.3181C55.4081 25.8652 57.2545 27.7976 58.8657 27.7976V28.3872C56.0216 28.3872 53.4485 24.9303 53.4485 20.3181C53.4485 15.6791 56.0216 12.2222 58.8657 12.2222ZM3.7584 12.8386C3.67799 12.5974 3.57078 12.5974 3.13895 12.5974H2.62969C1.71838 12.5974 1.15254 12.514 0.565846 12.514C0.408005 12.514 0.244209 12.6242 0.244209 12.8088C0.244209 13.1065 0.696886 13.1065 1.18232 13.2108C1.80177 13.3239 1.85239 13.6663 1.85239 14.4732C1.85239 15.3873 1.71838 22.8669 1.55756 25.1982C1.47715 26.5113 1.47715 27.2081 0.807072 27.3957C0.375244 27.5028 0 27.4493 0 27.7976C0 28.0924 0.160823 28.0924 0.375248 28.0924C0.59563 28.0924 0.914289 28.015 1.90601 28.015C3.03174 28.015 3.24914 28.0924 3.64821 28.0924C4.02643 28.0924 4.10088 27.9316 4.10088 27.7738C4.10088 27.3957 3.24914 27.5296 2.9275 27.3957C2.41228 27.2349 2.25444 26.9937 2.25444 24.1799C2.25444 21.926 2.33783 14.7442 2.65649 14.7442C2.87389 14.7442 2.89772 15.036 4.6161 20.9374C6.57273 27.6368 6.44169 28.015 6.73355 28.015C7.10879 28.015 6.94499 27.3718 7.93969 24.0459C10.5634 15.2533 10.5128 14.7442 10.7838 14.7442C10.9148 14.7442 10.8642 15.2265 10.9148 16.8612C11.1293 21.5002 11.2395 24.2901 11.2395 26.0558C11.2395 27.0473 11.2097 27.3153 10.5128 27.3957C9.78911 27.5028 9.62531 27.5832 9.62531 27.7976C9.62531 27.9852 9.71167 28.0924 10.0839 28.0924C10.352 28.0924 11.1025 28.015 12.0674 28.015C13.2497 28.015 13.6547 28.0924 13.8662 28.0924C14.158 28.0924 14.3218 28.0418 14.3218 27.7738C14.3218 27.5594 14.0538 27.5296 13.4641 27.3957C13.0918 27.3421 12.8744 26.9371 12.8476 26.2166C12.7404 23.4564 12.3652 16.486 12.3652 14.7174C12.3652 13.5889 12.4962 13.2673 12.7166 13.2108C13.6279 12.9994 13.8155 13.0797 13.8155 12.785C13.8155 12.6242 13.6547 12.514 13.4641 12.514C13.065 12.514 12.2848 12.5974 11.4777 12.5974H10.9416C10.7034 12.5974 10.5932 12.7046 10.4324 13.2673L7.64486 23.1348C7.53765 23.51 7.32024 24.0727 7.1892 24.0727C7.00158 24.0727 6.89437 23.4832 6.70675 22.8133L3.7584 12.8386ZM58.8657 28.3872V27.7976C60.45 27.7976 62.2965 25.8652 62.2965 20.3181C62.2965 14.771 60.45 12.8088 58.8657 12.8088V12.2222C61.683 12.2222 64.2561 15.6791 64.2561 20.3181C64.2561 24.9303 61.683 28.3872 58.8657 28.3872Z" fill="#123057"/>
</svg>
