<svg width="24" height="24" viewBox="0 0 24 24" fill="none" xmlns="http://www.w3.org/2000/svg">
<path d="M13.7988 2C9.26988 2.00013 5.59863 5.67219 5.59863 10.2012C5.59869 12.2533 6.35479 14.1272 7.60059 15.5654L2.17285 20.9932C1.94253 21.2236 1.94254 21.5967 2.17285 21.8271C2.40329 22.0575 2.77639 22.0575 3.00684 21.8271L8.43457 16.3994C9.87279 17.6452 11.7467 18.4013 13.7988 18.4014C18.3278 18.4014 21.9999 14.7301 22 10.2012C22 5.67211 18.3279 2 13.7988 2ZM13.7988 3.0625C17.7414 3.0625 20.9375 6.25861 20.9375 10.2012C20.9374 14.1436 17.7413 17.3398 13.7988 17.3398C9.85645 17.3397 6.66027 14.1436 6.66016 10.2012C6.66016 6.25869 9.85638 3.06263 13.7988 3.0625Z" fill="#123057"/>
</svg>
