<svg width="1440" height="186" viewBox="0 0 1440 186" fill="none" xmlns="http://www.w3.org/2000/svg">
<path d="M24.1534 86.1821C12.2359 82.0659 6.33046 80.8787 0 86.1821V186H1440V31.1102H1421.6C1413.1 20.1342 1403.45 17.3504 1379.04 17.3422C1376.24 9.74024 1373.73 6.34211 1360.64 8.16353C1345.43 -5.29905 1335.01 -0.670856 1315.78 11.6055C1284.78 30.7938 1269.62 44.6429 1245.62 73.5615C1221.38 75.0911 1208.12 74.8032 1184.66 73.5615C1173.54 56.9335 1166.86 49.6377 1150.16 58.6461C1134.93 49.9117 1121.15 52.0938 1090.35 64.3828C1080.76 52.6425 1073.94 47.3054 1053.55 44.8782C1018.56 32.5456 1006.1 38.5243 989.137 58.6461C974.968 47.0548 962.98 49.7087 931.629 77.0034C916.244 78.0447 914.501 83.1485 914.377 94.2134C887.017 103.983 875.181 115.092 854.836 134.188L853.419 135.517C844.602 139.156 840.089 143.747 832.716 156.169C802.913 153.982 754.505 166.495 741.853 169.937C721.968 163.837 711.125 161.59 694.696 168.79C682.323 177.077 676.911 177.655 670.543 169.937C658.422 151.541 651.464 141.666 631.438 144.696C623.542 136.358 618.042 134.163 608.435 129.781C601.297 130.098 596.78 130.155 586.581 129.781C580.622 115.195 575.443 109.865 561.278 107.981C550.526 99.7062 544.584 94.5953 531.374 99.9501C526.773 103.392 516.977 117.843 516.422 125.191C515.564 137.401 514.656 143.241 510.671 148.138C498.863 147.312 491.778 146.999 473.866 148.138C455.704 156.789 445.979 163.135 429.01 175.674C408.447 179.989 391.878 180.181 356.549 177.969C328.333 170.876 312.212 166.19 281.789 153.875C267.066 152.64 259.159 152.297 241.534 148.138C225.312 144.837 216.238 143.119 201.278 148.138C191.923 148.049 186.654 147.894 175.974 142.401H150.671C131.463 126.895 120.163 126.171 98.9137 140.107C80.6817 124.373 70.1281 117.214 48.3067 119.455C40.9348 104.286 39.3256 93.118 24.1534 86.1821Z" fill="#FEF5E2"/>
</svg>
