<svg width="1440" height="96" viewBox="0 0 1440 96" fill="none" xmlns="http://www.w3.org/2000/svg">
<path fill-rule="evenodd" clip-rule="evenodd" d="M0 0L24 7.15681C48 14.3136 96 28.3805 144 39.2391C192 49.8509 240 57.0077 288 49.8509C336 42.6941 384 21.4704 432 19.4961C480 17.7686 528 35.5373 576 35.5373C624 35.5373 672 17.7686 720 24.9255C768 32.0823 816 63.9177 864 67.6195C912 71.0746 960 46.1491 1008 32.0823C1056 17.7686 1104 14.3136 1152 21.4704C1200 28.3805 1248 46.1491 1296 46.1491C1344 46.1491 1392 28.3805 1416 19.4961L1440 10.6118V96H1416C1392 96 1344 96 1296 96C1248 96 1200 96 1152 96C1104 96 1056 96 1008 96C960 96 912 96 864 96C816 96 768 96 720 96C672 96 624 96 576 96C528 96 480 96 432 96C384 96 336 96 288 96C240 96 192 96 144 96C96 96 48 96 24 96H0V0Z" fill="#123057"/>
</svg>
