<svg width="1440" height="150" viewBox="0 0 1440 150" fill="none" xmlns="http://www.w3.org/2000/svg">
<path d="M40.2556 128.818C20.8927 134.908 10.08 138.344 0 149.521H1440V0C1420.94 2.01043 1410.09 4.80016 1390.54 11.5016C1362.27 16.5511 1347.47 16.4412 1321.53 14.9521C1255.54 26.1761 1222.15 48.6246 1160.51 79.361C1118.07 93.3268 1094.97 94.2418 1055.85 74.7604C1002.15 54.167 970.503 44.6956 874.121 26.4537C808.733 10.3027 773.467 7.07383 723.45 55.2077C679.445 40.4341 651.169 52.8643 600.383 77.0607C567.24 69.6673 544.304 71.3642 491.118 90.8626C377.533 91.3942 327.215 98.0575 255.335 118.466C217.38 118.466 181.725 96.9914 134.569 124.217C95.0816 127.546 74.7091 126.285 40.2556 128.818Z" fill="#F6F1E6"/>
</svg>
